<mxfile host="app.diagrams.net" modified="2024-03-22T14:35:00.791Z" agent="Mozilla/5.0 (Macintosh; Intel Mac OS X 10_15_7) AppleWebKit/537.36 (KHTML, like Gecko) Chrome/123.0.0.0 Safari/537.36" version="24.0.0" etag="XPRyu4JMkWBmY0s0Ji2g" type="github">
  <diagram name="第 1 页" id="BKOln0U9wCpYx3PaHIE1">
    <mxGraphModel>
      <root>
        <mxCell id="0" />
        <mxCell id="1" parent="0" />
      </root>
    </mxGraphModel>
  </diagram>
</mxfile>
